<?xml version="1.0" standalone="no"?>
<!DOCTYPE svg PUBLIC "-//W3C//DTD SVG 20010904//EN"
 "http://www.w3.org/TR/2001/REC-SVG-20010904/DTD/svg10.dtd">
<svg version="1.0" xmlns="http://www.w3.org/2000/svg"
 width="310.000000pt" height="310.000000pt" viewBox="0 0 310.000000 310.000000"
 preserveAspectRatio="xMidYMid meet">
<metadata>
Created by potrace 1.11, written by Peter Selinger 2001-2013
</metadata>
<g transform="translate(0.000000,310.000000) scale(0.100000,-0.100000)"
fill="#000000" stroke="none">
<path d="M850 2785 l0 -296 343 1 c188 1 349 -1 357 -4 8 -4 26 -25 40 -47 40
-67 41 -68 133 -207 48 -73 87 -137 87 -142 0 -4 3 -10 8 -12 4 -1 32 -41 62
-88 44 -70 203 -314 240 -370 95 -144 170 -263 170 -270 0 -6 5 -10 10 -10 6
0 10 -7 10 -15 0 -13 -55 -15 -435 -15 l-435 0 -1 38 c0 20 0 258 0 529 0 369
-3 492 -12 495 -7 2 -138 3 -292 3 l-280 -1 -3 -825 -2 -826 858 0 c681 0 870
3 911 14 89 22 157 60 225 124 78 73 129 167 150 274 11 62 11 79 -4 142 -29
125 -117 321 -206 460 -19 29 -34 55 -34 58 0 2 -19 32 -42 67 -24 35 -47 72
-53 81 -16 27 -297 440 -398 584 -51 73 -110 158 -132 190 -148 214 -204 277
-282 316 -85 43 -130 47 -573 47 l-420 0 0 -295z"/>
<path d="M153 1190 l0 -1180 293 0 c269 1 294 2 295 18 1 22 1 2301 0 2325 -1
16 -22 17 -294 17 l-294 0 0 -1180z"/>
<path d="M860 304 l0 -293 548 0 547 0 193 287 c105 158 192 290 192 293 0 3
-333 6 -740 6 l-740 0 0 -293z"/>
</g>
</svg>
