<?xml version="1.0" encoding="utf-8"?>
<!-- Generator: Adobe Illustrator 19.0.1, SVG Export Plug-In . SVG Version: 6.00 Build 0)  -->
<svg version="1.1" id="Capa_1" xmlns="http://www.w3.org/2000/svg" xmlns:xlink="http://www.w3.org/1999/xlink" x="0px" y="0px"
	 viewBox="-18 35.9 31.1 31.1" style="enable-background:new -18 35.9 31.1 31.1;" xml:space="preserve">
<style type="text/css">
	.st0{fill:#AAAAAA;}
</style>
<g>
	<g>
		<path class="st0" d="M12.2,67h-29.3c-0.5,0-0.9-0.4-0.9-0.9V36.8c0-0.5,0.4-0.9,0.9-0.9h29.3c0.5,0,0.9,0.4,0.9,0.9v29.3
			C13.1,66.6,12.7,67,12.2,67z M-16.2,65.2h27.5V37.7h-27.5V65.2z"/>
	</g>
	<g>
		<path class="st0" d="M-17.1,67c-0.2,0-0.4-0.1-0.6-0.2c-0.4-0.3-0.4-0.9-0.1-1.3l8.9-9.9c0.2-0.2,0.4-0.3,0.6-0.3
			c0.2,0,0.5,0.1,0.6,0.2l2.3,2.2l7-6.9c0.3-0.3,0.9-0.3,1.2,0l9.9,8.9c0.2,0.2,0.3,0.4,0.3,0.7v5.7c0,0.5-0.4,0.9-0.9,0.9H2.3
			c-0.2,0-0.4-0.1-0.6-0.2l-9.9-9.3l-8.3,9.2C-16.6,66.9-16.9,67-17.1,67z M2.6,65.2h8.6v-4.5l-9-8.1L-4,59L2.6,65.2z"/>
	</g>
	<g>
		<path class="st0" d="M-8,51.7c-2.3,0-4.3-1.9-4.3-4.3c0-2.3,1.9-4.3,4.3-4.3s4.3,1.9,4.3,4.3C-3.7,49.8-5.6,51.7-8,51.7z M-8,45
			c-1.4,0-2.5,1.1-2.5,2.5c0,1.4,1.1,2.5,2.5,2.5s2.5-1.1,2.5-2.5C-5.5,46.1-6.6,45-8,45z"/>
	</g>
</g>
</svg>
