<?xml version="1.0" encoding="UTF-8" standalone="no"?>
<svg
   xmlns:dc="http://purl.org/dc/elements/1.1/"
   xmlns:cc="http://creativecommons.org/ns#"
   xmlns:rdf="http://www.w3.org/1999/02/22-rdf-syntax-ns#"
   xmlns:svg="http://www.w3.org/2000/svg"
   xmlns="http://www.w3.org/2000/svg"
   xmlns:sodipodi="http://sodipodi.sourceforge.net/DTD/sodipodi-0.dtd"
   xmlns:inkscape="http://www.inkscape.org/namespaces/inkscape"
   version="1.1"
   x="0px"
   y="0px"
   viewBox="-7.983 0 100 100"
   enable-background="new -7.983 0 100 100"
   xml:space="preserve"
   id="svg2"
   inkscape:version="0.91 r13725"
   sodipodi:docname="developer-default-photo.svg"><metadata
     id="metadata14"><rdf:RDF><cc:Work
         rdf:about=""><dc:format>image/svg+xml</dc:format><dc:type
           rdf:resource="http://purl.org/dc/dcmitype/StillImage" /></cc:Work></rdf:RDF></metadata><defs
     id="defs12" /><sodipodi:namedview
     pagecolor="#ffffff"
     bordercolor="#666666"
     borderopacity="1"
     objecttolerance="10"
     gridtolerance="10"
     guidetolerance="10"
     inkscape:pageopacity="0"
     inkscape:pageshadow="2"
     inkscape:window-width="1366"
     inkscape:window-height="705"
     id="namedview10"
     showgrid="false"
     inkscape:zoom="2.36"
     inkscape:cx="50"
     inkscape:cy="66.949153"
     inkscape:window-x="-8"
     inkscape:window-y="-8"
     inkscape:window-maximized="1"
     inkscape:current-layer="svg2" /><path
     d="M18.629,91.508h46.774c1.739,0,3.15-1.409,3.15-3.151l6.299-29.641c0.001-1.74-1.409-3.151-3.149-3.151h-5.985h-0.443  H18.758h-0.307h-6.12c-1.742,0-3.15,1.411-3.15,3.151l6.297,29.643C15.478,90.099,16.888,91.508,18.629,91.508z M40.614,72.904  c0.298-0.459,0.814-0.765,1.403-0.765c0.114,0,0.229,0.013,0.336,0.033c0.206,0.043,0.396,0.126,0.567,0.235  c0.012,0.006,0.021,0.011,0.031,0.018c0.057,0.039,0.104,0.084,0.156,0.129c0.03,0.024,0.064,0.049,0.091,0.076  c0.029,0.028,0.05,0.062,0.077,0.093c0.042,0.051,0.089,0.099,0.128,0.155c0.005,0.008,0.009,0.016,0.015,0.025  c0.002,0.002,0.003,0.005,0.004,0.007c0.109,0.171,0.19,0.36,0.233,0.565c0.023,0.11,0.033,0.222,0.034,0.339  c0,0.925-0.748,1.674-1.673,1.674c-0.926,0-1.675-0.749-1.675-1.673C40.343,73.479,40.443,73.167,40.614,72.904z"
     id="path4"
     style="fill:#202d3a;fill-opacity:1" /><path
     d="M68.462,92.305h-52.89c-0.745,0-1.347,0.604-1.347,1.348c0,0.742,0.603,1.348,1.347,1.348h52.891  c0.742,0,1.347-0.604,1.347-1.348C69.808,92.908,69.205,92.305,68.462,92.305z"
     id="path6"
     style="fill:#202d3a;fill-opacity:1" /><path
     d="M64.046,43.985c0,0-1.16-1.584-3.905-2.639c0,0-5.854-1.777-8.631-3.72c0,0.056-0.001,0.113-0.003,0.17  c-0.013,0.764-0.098,1.698-0.217,2.667c-0.351,2.879-0.999,6.077-0.999,6.077c-0.859-1.416-1.633-2.35-2.315-2.95  c-0.938-0.825-1.703-1.018-2.277-0.958c-0.681,0.07-1.094,0.494-1.212,0.633c3.75-4.576,5.089-8.486,5.206-8.847  c-0.023-0.285-0.031-0.588-0.013-0.914c0,0-0.023-0.403-0.064-0.359c1.074-1.38,1.949-2.53,2.528-4.136  c0.987-0.992,1.494-3.396,1.494-3.396c0.823-2.308,0.313-3.203-0.076-3.537c0.598-1.932,1.893-7.38-1.19-10.849  c0,0-1.9-2.613-6.651-3.563c0,0-1.826-0.738-2.558-2.665c0,0-1.637,0.212-1.637,1.637L40.734,6.32l-0.732,0.518L39.151,6.32  c0,0-0.313-0.095-1.029,0.158c0,0-5.464,2.374-7.047,7.283c0,0-0.878,2.082,0.193,8.149c-0.259,0.102-1.403,0.735-0.346,3.702  c0,0,0.459,2.178,1.354,3.242c0.503,1.561,1.273,3.068,2.217,4.398c-0.005-0.005-0.01-0.01-0.015-0.015c0,0,0.119,0.584,0.01,1.4  c0.221,0.6,1.993,5.228,5.113,8.726c-0.164-0.167-0.507-0.445-1.014-0.531c-0.547-0.095-1.286,0.035-2.201,0.774  c-0.729,0.587-1.569,1.562-2.511,3.117c0,0-0.776-3.819-1.091-6.868c-0.075-0.73-0.124-1.418-0.13-1.997c0-0.114,0-0.225,0.002-0.33  c-2.718,1.979-8.765,3.814-8.765,3.814c-2.745,1.056-3.905,2.639-3.905,2.639c-3.312,4.9-4.239,9.123-4.471,11.187h52.998  C68.285,53.106,67.357,48.884,64.046,43.985z"
     id="path8"
     style="fill:#202d3a;fill-opacity:1" /></svg>