<?xml version="1.0" encoding="utf-8"?>
<!-- Generator: Adobe Illustrator 19.0.1, SVG Export Plug-In . SVG Version: 6.00 Build 0)  -->
<svg version="1.1" id="Слой_1" xmlns="http://www.w3.org/2000/svg" xmlns:xlink="http://www.w3.org/1999/xlink" x="0px" y="0px"
	 viewBox="0 0 65.5 89.8" style="enable-background:new 0 0 65.5 89.8;" xml:space="preserve">
<style type="text/css">
	.st0{fill:#AAAAAA;}
</style>
<path id="path4" class="st0" d="M9.2,86.4H56c1.7,0,3.2-1.4,3.2-3.2l6.3-29.6c0-1.7-1.4-3.2-3.1-3.2h-6H56H9.5H9.2H3.1
	c-1.7,0-3.1,1.4-3.1,3.2l6.3,29.6C6.1,85,7.5,86.4,9.2,86.4z M31.2,67.8c0.3-0.5,0.8-0.8,1.4-0.8c0.1,0,0.2,0,0.3,0
	c0.2,0,0.4,0.1,0.6,0.2l0,0c0.1,0,0.1,0.1,0.2,0.1c0,0,0.1,0,0.1,0.1c0,0,0,0.1,0.1,0.1c0,0.1,0.1,0.1,0.1,0.2l0,0l0,0
	c0.1,0.2,0.2,0.4,0.2,0.6c0,0.1,0,0.2,0,0.3c0,0.9-0.7,1.7-1.7,1.7c-0.9,0-1.7-0.7-1.7-1.7C30.9,68.4,31,68.1,31.2,67.8z"/>
<path id="path6" class="st0" d="M59.1,87.2H6.2c-0.7,0-1.3,0.6-1.3,1.3c0,0.7,0.6,1.3,1.3,1.3h52.9c0.7,0,1.3-0.6,1.3-1.3
	S59.8,87.2,59.1,87.2z"/>
<path id="path8" class="st0" d="M54.6,38.9c0,0-1.2-1.6-3.9-2.6c0,0-5.9-1.8-8.6-3.7c0,0.1,0,0.1,0,0.2c0,0.8-0.1,1.7-0.2,2.7
	c-0.4,2.9-1,6.1-1,6.1c-0.9-1.4-1.6-2.4-2.3-3c-0.9-0.8-1.7-1-2.3-1c-0.7,0.1-1.1,0.5-1.2,0.6c3.8-4.6,5.1-8.5,5.2-8.8
	c0-0.3,0-0.6,0-0.9c0,0,0-0.4-0.1-0.4c1.1-1.4,1.9-2.5,2.5-4.1c1-1,1.5-3.4,1.5-3.4c0.8-2.3,0.3-3.2-0.1-3.5
	c0.6-1.9,1.9-7.4-1.2-10.8c0,0-1.9-2.6-6.7-3.6c0,0-1.8-0.7-2.6-2.7c0,0-1.6,0.2-1.6,1.6l-0.8-0.3l-0.7,0.5l-0.9-0.5
	c0,0-0.3-0.1-1,0.2c0,0-5.5,2.4-7,7.3c0,0-0.9,2.1,0.2,8.1c-0.3,0.1-1.4,0.7-0.3,3.7c0,0,0.5,2.2,1.4,3.2c0.5,1.6,1.3,3.1,2.2,4.4
	l0,0c0,0,0.1,0.6,0,1.4c0.2,0.6,2,5.2,5.1,8.7c-0.2-0.2-0.5-0.4-1-0.5s-1.3,0-2.2,0.8c-0.7,0.6-1.6,1.6-2.5,3.1c0,0-0.8-3.8-1.1-6.9
	c-0.1-0.7-0.1-1.4-0.1-2c0-0.1,0-0.2,0-0.3c-2.7,2-8.8,3.8-8.8,3.8c-2.7,1.1-3.9,2.6-3.9,2.6C7.3,43.8,6.4,48,6.1,50.1h53
	C58.9,48,58,43.8,54.6,38.9z"/>
</svg>
