<?xml version="1.0" encoding="UTF-8" standalone="no"?>
<svg
   xmlns:dc="http://purl.org/dc/elements/1.1/"
   xmlns:cc="http://creativecommons.org/ns#"
   xmlns:rdf="http://www.w3.org/1999/02/22-rdf-syntax-ns#"
   xmlns:svg="http://www.w3.org/2000/svg"
   xmlns="http://www.w3.org/2000/svg"
   version="1.1"
   id="svg3365"
   viewBox="0 0 100 100"
   height="100"
   width="100">
  <defs
     id="defs3367" />
  <metadata
     id="metadata3370">
    <rdf:RDF>
      <cc:Work
         rdf:about="">
        <dc:format>image/svg+xml</dc:format>
        <dc:type
           rdf:resource="http://purl.org/dc/dcmitype/StillImage" />
        <dc:title></dc:title>
      </cc:Work>
    </rdf:RDF>
  </metadata>
  <g
     transform="translate(0,-952.36221)"
     id="layer1">
    <g
       transform="matrix(0.19713523,0,0,0.19713523,-53.366352,919.20452)"
       style="fill:#ffffff"
       id="g3348">
      <path
         d="m 405,177 c 46.333,0 92.667,0 139,0 0.928,0.308 1.836,0.765 2.789,0.899 13.563,1.918 25.835,7.063 35.596,16.608 6.603,6.458 12.402,13.901 17.7,21.504 32.919,47.248 66.484,94.081 98.063,142.215 24.555,37.426 49.67,74.984 59.852,119.774 0,3.667 0,7.333 0,11 -0.293,0.941 -0.728,1.863 -0.857,2.826 -5.401,40.009 -39.815,70.156 -80.232,70.166 -88.644,0.025 -177.288,0.008 -265.932,0.008 -1.907,0 -3.814,0 -5.591,0 0,-90.413 0,-179.984 0,-269.754 32.076,0 63.833,0 96.237,0 0,57.915 0,115.619 0,173.494 48.355,0 96.063,0 144.391,0 -0.85,-1.405 -1.396,-2.368 -1.998,-3.294 -40.431,-62.089 -80.887,-124.161 -121.235,-186.304 -1.736,-2.675 -3.692,-3.167 -6.562,-3.161 -34.991,0.08 -69.982,0.052 -104.973,0.052 -1.934,0 -3.867,0 -6.248,0 0,-32.448 0,-64.241 0,-96.033 z"
         id="path48"
         style="clip-rule:evenodd;fill:#ffffff;fill-rule:evenodd" />
      <path
         d="m 291,293 c 31.978,0 63.955,0 96.615,0 0,2.591 0,4.871 0,7.152 0,123.633 -0.002,247.266 0.016,370.897 0,2.317 0.241,4.634 0.369,6.95 -32.333,0 -64.667,0 -97,0 0,-128.332 0,-256.666 0,-384.999 z"
         id="path50"
         style="clip-rule:evenodd;fill:#ffffff;fill-rule:evenodd" />
      <path
         d="m 407,678 c -0.076,-29.469 -0.153,-58.938 -0.228,-88.406 -0.006,-2.312 -10e-4,-4.623 -10e-4,-7.261 81.313,0 162.289,0 243.816,0 -1.113,1.81 -1.983,3.343 -2.965,4.803 -19.318,28.722 -38.653,57.432 -57.961,86.16 -1.002,1.491 -1.779,3.133 -2.662,4.704 C 527,678 467,678 407,678 Z"
         id="path52"
         style="clip-rule:evenodd;fill:#ffffff;fill-rule:evenodd" />
    </g>
  </g>
</svg>
