<?xml version="1.0" encoding="utf-8"?>
<!-- Generator: Adobe Illustrator 19.0.1, SVG Export Plug-In . SVG Version: 6.00 Build 0)  -->
<svg version="1.1" id="Capa_1" xmlns="http://www.w3.org/2000/svg" xmlns:xlink="http://www.w3.org/1999/xlink" x="0px" y="0px"
	 viewBox="221 -206 512 512" style="enable-background:new 221 -206 512 512;" xml:space="preserve">
<style type="text/css">
	.st0{fill:#FFFFFF;stroke:#FFFFFF;stroke-miterlimit:10;}
	.st1{fill:#FFFFFF;}
</style>
<circle class="st0" cx="622.1" cy="152.4" r="93.7"/>
<g>
	<path class="st1" d="M666.3,105.5l-47.8,68.6l-33.7-27.7c-3.6-3-9-2.5-12,1.2c-3,3.6-2.5,9,1.2,12l40.8,33.5
		c1.5,1.3,3.4,1.9,5.4,1.9c0.4,0,0.8,0,1.2-0.1c2.4-0.3,4.5-1.6,5.8-3.6l53-76.2c2.7-3.9,1.7-9.2-2.1-11.9
		C674.3,100.6,669,101.6,666.3,105.5z"/>
	<path class="st1" d="M715.9,93.5v-248.3c0-0.1,0-0.1,0-0.2c0-0.9-0.2-1.9-0.5-2.8c0-0.1-0.1-0.1-0.1-0.2c-0.1-0.2-0.2-0.4-0.4-0.6
		c-0.3-0.7-0.8-1.3-1.3-1.9c-0.2-0.2-0.5-0.4-0.7-0.7c-0.5-0.5-1.1-0.9-1.7-1.2c-0.3-0.1-0.5-0.3-0.8-0.4c-0.9-0.4-1.9-0.6-3-0.6
		H229.5c-1.1,0-2,0.2-3,0.6c-0.3,0.1-0.6,0.3-0.8,0.4c-0.6,0.3-1.2,0.7-1.7,1.2c-0.2,0.2-0.5,0.4-0.7,0.7c-0.5,0.6-0.9,1.2-1.3,1.9
		c-0.1,0.2-0.3,0.4-0.4,0.6c0,0.1-0.1,0.1-0.1,0.2c-0.3,0.9-0.5,1.9-0.5,2.8c0,0.1,0,0.1,0,0.2V178c0,0,0,0.1,0,0.1
		c0,0.9,0.1,1.8,0.5,2.7c0,0.1,0.1,0.2,0.2,0.3c0.1,0.3,0.3,0.5,0.4,0.8c0.3,0.6,0.7,1.2,1.2,1.7c0.2,0.3,0.5,0.5,0.7,0.7
		c0.5,0.5,1.1,0.8,1.7,1.2c0.3,0.1,0.5,0.3,0.8,0.4c0.9,0.3,2,0.6,3,0.6h287c14.4,44.5,56.2,76.8,105.5,76.8
		c61.2,0,110.9-49.8,110.9-110.9C733,130.8,726.7,110.6,715.9,93.5z M692.1,66.5c-2-1.6-4.1-3.1-6.2-4.6c-0.8-0.6-1.6-1.2-2.4-1.7
		c-2.1-1.4-4.2-2.6-6.4-3.9c-0.9-0.5-1.9-1.1-2.8-1.6c-2.1-1.1-4.2-2.1-6.3-3c-1.2-0.5-2.3-1.1-3.5-1.6c-2-0.8-4-1.5-6.1-2.2
		c-1.4-0.5-2.7-1-4.1-1.4c-2-0.6-4-1.1-6-1.5c-1.5-0.4-3-0.8-4.5-1.1c-2.2-0.4-4.4-0.7-6.6-1c-1.4-0.2-2.7-0.5-4.1-0.6
		c-3.6-0.4-7.3-0.6-11-0.6c-18.9,0-36.7,4.8-52.3,13.1l-45-36.8l174.1-153.7V72.4c-1.4-1.4-3-2.6-4.5-3.9
		C693.6,67.8,692.9,67.1,692.1,66.5z M684.8-146.3L505.2,12.4c-0.1,0.1-0.2,0.2-0.3,0.3c0,0,0,0,0,0l-16.8,14.8
		c-10.8,9.7-28.4,9.7-39.3,0l-16.9-14.9c-0.1-0.1-0.1-0.1-0.1-0.2c-0.2-0.2-0.5-0.3-0.7-0.5l-179-158.1H684.8z M412.5,18.1
		c-47.4,41.4-139.5,114.7-174.4,142.3v-296.3L412.5,18.1z M512.5,169.5H254.1c38.8-30.8,126.3-100.5,171.3-140l12.1,10.7
		c8.5,7.6,19.8,11.4,31,11.4c11.2,0,22.4-3.8,30.9-11.4l12.4-10.9l42.9,35.1c-0.3,0.2-0.5,0.5-0.8,0.7c-2.5,1.9-4.9,4-7.2,6.1
		c-0.8,0.7-1.6,1.4-2.4,2.2c-2.1,2.1-4.1,4.2-6,6.4c-2,2.3-3.9,4.8-5.7,7.2c-0.9,1.3-1.9,2.5-2.8,3.8c-1.3,2-2.5,4.1-3.7,6.1
		c-0.7,1.3-1.5,2.5-2.2,3.8c-1.1,2-2.1,4.1-3,6.2c-0.7,1.5-1.3,3-1.9,4.5c-0.8,2-1.6,4-2.2,6.1c-0.6,1.8-1.1,3.6-1.6,5.5
		c-0.5,1.9-1,3.7-1.5,5.6c-0.5,2.3-0.9,4.7-1.2,7.1c-0.2,1.5-0.5,3-0.7,4.6c-0.4,4-0.7,8-0.7,12.1c0,3.2,0.2,6.4,0.5,9.6
		c0.2,1.9,0.4,3.7,0.7,5.5C512.4,168.2,512.4,168.8,512.5,169.5z M622.1,246.3c-43.6,0-80.3-30-90.8-70.4c-1-3.8-1.7-7.6-2.2-11.3
		c0-0.3-0.1-0.5-0.1-0.8c-0.5-3.8-0.8-7.6-0.8-11.4c0-3.7,0.3-7.4,0.7-11c0.1-1.2,0.4-2.4,0.6-3.7c0.4-2.4,0.8-4.7,1.4-7
		c0.3-1.4,0.7-2.8,1.1-4.2c0.6-2.1,1.3-4.2,2.1-6.2c0.5-1.3,0.9-2.7,1.5-4.1c1.3-3,2.7-5.9,4.2-8.7c0.7-1.3,1.6-2.6,2.4-3.9
		c1.1-1.7,2.2-3.5,3.3-5.1c0.9-1.2,1.8-2.4,2.7-3.6c1.5-1.9,3.1-3.8,4.8-5.7c0.7-0.7,1.3-1.5,2-2.2c2.6-2.7,5.4-5.2,8.4-7.6
		c0,0,0,0,0,0c3-2.4,6.3-4.7,9.7-6.7c14.3-8.8,31.1-14,49.1-14c3.6,0,7.2,0.3,10.8,0.7c1.1,0.1,2.1,0.3,3.2,0.5
		c2.5,0.4,4.9,0.8,7.4,1.4c1.2,0.3,2.4,0.6,3.6,0.9c2.3,0.6,4.5,1.4,6.8,2.2c1.1,0.4,2.3,0.8,3.4,1.2c2.5,1,5,2.2,7.4,3.4
		c0.7,0.3,1.4,0.6,2.1,1c2.9,1.6,5.7,3.4,8.5,5.2c1.1,0.8,2.2,1.6,3.2,2.4c1.7,1.3,3.4,2.6,5,4c1.1,0.9,2.1,1.9,3.2,2.9
		c1.6,1.6,3.2,3.2,4.8,4.9c0.8,0.9,1.6,1.7,2.4,2.7c2.2,2.6,4.3,5.4,6.3,8.3c10,14.9,15.9,32.9,15.9,52.1
		C715.9,204.2,673.8,246.3,622.1,246.3z"/>
</g>
</svg>
