<?xml version="1.0" encoding="utf-8"?>
<!-- Generator: Adobe Illustrator 19.0.1, SVG Export Plug-In . SVG Version: 6.00 Build 0)  -->
<svg version="1.1" id="Capa_1" xmlns="http://www.w3.org/2000/svg" xmlns:xlink="http://www.w3.org/1999/xlink" x="0px" y="0px"
	 viewBox="-130 222.3 349.7 349.7" style="enable-background:new -130 222.3 349.7 349.7;" xml:space="preserve">
<style type="text/css">
	.st0{fill:#9A9A9A;}
</style>
<g>
	<path class="st0" d="M44.8,419.5c24.1,0,80.8-29,80.8-98.6c0-54.5-7.3-98.6-80.8-98.6c-73.5,0-80.8,44.1-80.8,98.6
		C-36,390.5,20.7,419.5,44.8,419.5z M-23.9,304.5c5.7-11,18-23.7,44.4-23.1c0,0,15.7,38.2,93.1,21c0.3,6.1,0.4,12.3,0.4,18.5
		c0,34-15,55.1-27.6,66.8c-15.9,14.7-33.5,20.1-41.5,20.1s-25.6-5.3-41.5-20.1c-12.6-11.7-27.6-32.8-27.6-66.8
		C-24.2,315.4-24.2,309.9-23.9,304.5z"/>
	<path class="st0" d="M194.9,520.7c-4.1-25.7-12.6-58.7-29.7-70.5c-11.6-8-52.2-29.7-69.6-39l-0.3-0.2c-2-1.1-4.4-0.8-6.2,0.5
		c-9.1,7.1-19,11.9-29.6,14.3c-1.8,0.4-3.3,1.7-4,3.4l-10.8,26.2L34,429.2c-0.7-1.7-2.2-3-4-3.4c-10.5-2.3-20.5-7.2-29.6-14.3
		c-1.8-1.4-4.2-1.6-6.2-0.5c-17.1,9.2-58.2,31.3-69.8,39.1c-19.6,13.2-28.2,61.1-29.7,70.5c-0.2,0.9-0.1,1.9,0.3,2.8
		c0.7,2,18.7,48.5,149.8,48.5s149.1-46.6,149.8-48.5C195,522.6,195.1,521.6,194.9,520.7z M29.7,505.1c0,0.4-0.2,0.8-0.6,0.9
		l-16.2,7.1l16.2,7.1c0.4,0.2,0.6,0.5,0.6,0.9v5.3c0,0.3-0.2,0.7-0.5,0.8c-0.2,0.1-0.4,0.2-0.5,0.2c-0.1,0-0.3,0-0.4-0.1l-24-11.1
		c-0.4-0.2-0.6-0.5-0.6-0.9v-4.3c0-0.4,0.2-0.7,0.6-0.9l24-11.1c0.3-0.1,0.7-0.1,1,0.1c0.3,0.2,0.5,0.5,0.5,0.8L29.7,505.1
		L29.7,505.1z M54.1,492.4l-10.7,36.3c-0.1,0.4-0.5,0.7-1,0.7h-5.1c-0.3,0-0.6-0.1-0.8-0.4c-0.2-0.3-0.2-0.6-0.2-0.9l10.7-36.3
		c0.1-0.4,0.5-0.7,1-0.7h5.1c0.3,0,0.6,0.1,0.8,0.4C54.1,491.8,54.2,492.1,54.1,492.4z M86,515.4c0,0.4-0.2,0.7-0.6,0.9l-24,11
		c-0.1,0.1-0.3,0.1-0.4,0.1c-0.2,0-0.4-0.1-0.5-0.2c-0.3-0.2-0.5-0.5-0.5-0.8v-5.3c0-0.4,0.2-0.8,0.6-0.9l16.5-7.1L60.6,506
		c-0.4-0.2-0.6-0.5-0.6-0.9v-5.3c0-0.3,0.2-0.7,0.5-0.8c0.3-0.2,0.6-0.2,1-0.1l24,11c0.4,0.2,0.6,0.5,0.6,0.9V515.4z"/>
	<path class="st0" d="M29.3,348.4c9.1-4.7,12.2-20.6,12.4-21.3c0,0,0.3-1.1,3.2-1.1l0.2,0c2.2,0,2.9,0.7,3,1.2
		c0.1,0.7,3.4,16.5,12.3,21.1c6,3.1,13.2,3.8,18.2,3.8c6.4,0,12.8-1.1,16-2.8c6.8-3.6,7.4-6.2,9.9-21.2c0.1-0.6,0.3-1,0.5-1.4
		c0.1-0.1,0.2-0.3,0.4-0.4c0.7-0.7,1.6-1.8,1.6-4.2c0-0.3,0-0.8,0-1.4l0-0.1c0-1,0-2.2,0-2.9c-0.2-3.7-3.4-5.2-5-5.4
		c-6.1-1.3-13-1.9-20.5-1.9c-3.2,0-6.6,0.1-9.9,0.4l-0.6,0c-6.8,0.5-10.6,0.8-15.2,2.8c-0.9,0.4-2,0.9-3.1,1.5
		c-1.6,0.8-3.9,1.7-5.1,2c-2,0.4-3.2,0.4-5.2,0c-1.2-0.3-3.5-1.2-5.1-2c-1.1-0.6-2.1-1.1-3.1-1.5c-4.6-2.1-8.3-2.3-15.2-2.8l-0.6,0
		c-3.4-0.2-6.7-0.4-9.9-0.4c-7.5,0-14.4,0.6-20.5,1.9c-1.7,0.3-4.9,1.8-5.1,5.5c0,0.7,0,1.9,0,2.9l0,0.4c0,0.5,0,0.9,0,1.2
		c-0.1,2.5,0.9,3.5,1.6,4.3c0.2,0.2,0.3,0.3,0.3,0.4c0.2,0.4,0.4,0.8,0.5,1.4c2.5,15,3.1,17.6,9.9,21.2c3.2,1.7,9.6,2.8,16,2.8
		C16.1,352.2,23.3,351.5,29.3,348.4z M55.4,321.9c0.2-0.4,2.1-4,18.9-4.9c2.9-0.2,5.4-0.3,7.5-0.3c9.4,0,12.3,1.6,14,4.2
		c1,1.5,1.7,4.9,1.7,7c0,4.7-0.9,13-7.2,16.1c-3,1.5-7.5,2.3-12.1,2.3c-8.7,0-15.7-2.9-18.6-7.8C53.3,328.1,55.4,322,55.4,321.9z
		 M-7.9,327.9c0-2.1,0.7-5.5,1.7-7c1.7-2.6,4.6-4.2,14-4.2c2.2,0,4.6,0.1,7.5,0.3c16.5,1,18.7,4.4,18.9,5c0,0.1,2,6.2-4.2,16.5
		c-2.9,4.9-9.8,7.8-18.6,7.8c-4.6,0-9.1-0.9-12.1-2.3C-7,340.9-7.9,332.6-7.9,327.9z"/>
</g>
</svg>
